<?xml version="1.0" standalone="no"?>
<!DOCTYPE svg PUBLIC "-//W3C//DTD SVG 20010904//EN"
 "http://www.w3.org/TR/2001/REC-SVG-20010904/DTD/svg10.dtd">
<svg version="1.0" xmlns="http://www.w3.org/2000/svg"
 width="840.000000pt" height="760.000000pt" viewBox="0 0 840.000000 760.000000"
 preserveAspectRatio="xMidYMid meet">

<g transform="translate(0.000000,760.000000) scale(0.100000,-0.100000)"
fill="#000000" stroke="none">
<path d="M4655 7166 c-105 -48 -165 -142 -165 -259 0 -37 6 -83 14 -101 7 -18
77 -128 155 -244 77 -117 141 -216 141 -222 0 -6 -624 -11 -1862 -12 l-1863
-3 -97 -34 c-249 -86 -451 -280 -535 -512 -44 -121 -106 -468 -157 -874 -119
-947 -99 -1734 70 -2745 24 -146 53 -298 64 -338 69 -248 270 -469 511 -562
163 -63 74 -60 2065 -60 l1814 0 -141 -212 c-78 -116 -150 -230 -160 -252 -25
-55 -25 -167 0 -222 27 -59 77 -112 135 -142 42 -21 65 -26 126 -26 89 0 155
29 211 91 19 21 142 201 274 401 l240 361 781 1 c858 0 880 1 1033 60 187 72
362 232 453 415 112 223 251 653 321 991 121 580 144 1221 67 1819 -72 553
-290 1256 -464 1498 -119 166 -310 289 -516 333 -52 11 -223 14 -867 14 l-803
0 -260 389 c-145 218 -272 398 -289 410 -92 66 -205 80 -296 37z m-400 -1538
c-72 -73 -197 -202 -280 -285 l-150 -153 -542 0 -541 0 -159 248 c-87 136
-169 264 -182 285 l-23 37 1004 0 1003 0 -130 -132z m1206 -18 c71 -105 200
-372 249 -515 82 -240 141 -505 176 -795 22 -180 30 -687 15 -891 -36 -483
-138 -895 -306 -1244 -76 -158 -225 -385 -252 -385 -4 0 -198 190 -430 422
l-423 423 0 1141 0 1140 428 428 427 427 33 -38 c18 -21 55 -72 83 -113z
m1737 67 c87 -89 241 -520 322 -904 16 -79 30 -146 30 -149 0 -4 -71 -5 -157
-2 -136 5 -168 9 -233 31 -394 138 -517 621 -235 925 63 68 173 142 210 142
12 0 40 -19 63 -43z m-5225 -441 l237 -334 0 -1134 0 -1135 -241 -337 c-276
-387 -234 -359 -339 -231 -232 285 -417 684 -499 1077 -168 807 -4 1646 437
2248 74 100 143 180 156 180 6 0 118 -151 249 -334z m5577 -2331 c0 -12 -52
-243 -76 -338 -58 -229 -191 -595 -245 -674 -16 -23 -43 -52 -61 -64 l-31 -23
-65 35 c-181 95 -302 300 -302 508 1 248 184 480 430 545 52 14 350 23 350 11z
m-3441 -848 l274 -282 -998 -3 c-549 -1 -1000 0 -1002 2 -4 4 277 449 339 539
l19 27 547 -1 547 0 274 -282z"/>
</g>
</svg>
