<?xml version="1.0" standalone="no"?>
<!DOCTYPE svg PUBLIC "-//W3C//DTD SVG 20010904//EN"
 "http://www.w3.org/TR/2001/REC-SVG-20010904/DTD/svg10.dtd">
<svg version="1.0" xmlns="http://www.w3.org/2000/svg"
 width="760.000000pt" height="840.000000pt" viewBox="0 0 760.000000 840.000000"
 preserveAspectRatio="xMidYMid meet">

<g transform="translate(0.000000,840.000000) scale(0.100000,-0.100000)"
fill="#000000" stroke="none">
<path d="M3665 8193 c-242 -6 -519 -34 -775 -79 -482 -84 -1069 -281 -1273
-428 -166 -119 -289 -310 -333 -516 -11 -52 -14 -223 -14 -867 l0 -803 -389
-260 c-218 -145 -398 -272 -410 -289 -88 -124 -80 -280 20 -380 73 -73 214
-104 303 -67 18 7 128 77 244 155 117 77 216 141 222 141 6 0 11 -624 12
-1862 l3 -1863 34 -97 c86 -249 280 -451 512 -535 121 -44 468 -106 874 -157
947 -119 1734 -99 2745 70 146 24 298 53 338 64 248 69 469 270 562 511 63
163 60 74 60 2065 l0 1814 212 -141 c116 -78 230 -150 252 -160 55 -25 167
-25 222 0 59 27 112 77 142 135 21 42 26 65 26 126 0 89 -29 155 -91 211 -21
19 -201 142 -401 274 l-361 240 -1 781 c0 858 -1 880 -60 1033 -72 187 -232
362 -415 453 -27 14 -106 48 -175 76 -418 168 -880 280 -1375 332 -104 11
-527 31 -580 28 -16 -1 -75 -3 -130 -5z m-687 -800 c-5 -136 -9 -168 -31 -233
-138 -394 -621 -517 -925 -235 -68 63 -142 173 -142 210 0 32 78 101 154 135
116 52 327 127 478 171 127 37 420 106 457 108 11 1 13 -26 9 -156z m1837 132
c272 -59 471 -118 710 -212 151 -60 211 -95 246 -145 l23 -31 -35 -65 c-95
-181 -300 -302 -508 -302 -250 1 -482 186 -546 435 -14 56 -23 345 -10 345 3
0 57 -11 120 -25z m-604 -1625 c469 -37 881 -139 1224 -305 158 -76 385 -225
385 -252 0 -4 -190 -198 -422 -430 l-423 -423 -1141 0 -1140 0 -428 428 -427
427 38 33 c76 65 191 135 348 212 353 174 743 270 1270 313 100 9 594 6 716
-3z m-1953 -1925 l152 -150 0 -542 0 -541 -247 -159 c-137 -87 -265 -169 -285
-182 l-38 -23 0 1004 0 1003 133 -130 c72 -72 201 -197 285 -280z m3568 -1593
c-3 -2 -130 77 -283 175 l-278 179 -2 550 -2 549 282 274 282 274 3 -998 c1
-549 0 -1000 -2 -1003z m-522 -413 c387 -276 359 -234 231 -339 -285 -232
-684 -417 -1077 -499 -807 -168 -1646 -4 -2248 437 -100 74 -180 143 -180 156
0 6 150 118 333 248 l332 237 1136 1 1136 0 337 -241z"/>
</g>
</svg>
